{
    "asset" : {
        "generator" : "Khronos glTF Blender I/O v0.9.36",
        "version" : "2.0"
    },
    "scene" : 0,
    "scenes" : [
        {
            "name" : "Scene",
            "nodes" : [
                0,
                1,
                2
            ]
        }
    ],
    "nodes" : [
        {
            "name" : "Light",
            "rotation" : [
                0.16907575726509094,
                0.7558803558349609,
                -0.27217137813568115,
                0.570947527885437
            ],
            "translation" : [
                4.076245307922363,
                5.903861999511719,
                -1.0054539442062378
            ]
        },
        {
            "name" : "Camera",
            "rotation" : [
                0.483536034822464,
                0.33687159419059753,
                -0.20870360732078552,
                0.7804827094078064
            ],
            "translation" : [
                7.358891487121582,
                4.958309173583984,
                6.925790786743164
            ]
        },
        {
            "mesh" : 0,
            "name" : "face",
            "rotation" : [
                0.7071068286895752,
                0,
                0,
                0.7071067094802856
            ]
        }
    ],
    "materials" : [
        {
            "doubleSided" : true,
            "name" : "lambert5SG",
            "pbrMetallicRoughness" : {
                "baseColorFactor" : [
                    0.8000000715255737,
                    0.2551276683807373,
                    0.13404272496700287,
                    1
                ],
                "metallicFactor" : 0.1666666716337204,
                "roughnessFactor" : 0.5
            }
        },
        {
            "doubleSided" : true,
            "name" : "blinn1SG",
            "pbrMetallicRoughness" : {
                "baseColorFactor" : [
                    0.800000011920929,
                    0.800000011920929,
                    0.800000011920929,
                    1
                ],
                "metallicFactor" : 0,
                "roughnessFactor" : 0.5
            }
        },
        {
            "doubleSided" : true,
            "name" : "phong1SG",
            "pbrMetallicRoughness" : {
                "baseColorFactor" : [
                    0.800000011920929,
                    0.800000011920929,
                    0.800000011920929,
                    1
                ],
                "metallicFactor" : 0,
                "roughnessFactor" : 0.5
            }
        }
    ],
    "meshes" : [
        {
            "name" : "face",
            "primitives" : [
                {
                    "attributes" : {
                        "POSITION" : 0,
                        "NORMAL" : 1,
                        "TEXCOORD_0" : 2
                    },
                    "indices" : 3,
                    "material" : 0
                },
                {
                    "attributes" : {
                        "POSITION" : 4,
                        "NORMAL" : 5,
                        "TEXCOORD_0" : 6
                    },
                    "indices" : 7,
                    "material" : 1
                },
                {
                    "attributes" : {
                        "POSITION" : 8,
                        "NORMAL" : 9,
                        "TEXCOORD_0" : 10
                    },
                    "indices" : 11,
                    "material" : 2
                }
            ]
        }
    ],
    "accessors" : [
        {
            "bufferView" : 0,
            "componentType" : 5126,
            "count" : 3585,
            "max" : [
                8.42662525177002,
                10.630736351013184,
                -0.09660100191831589
            ],
            "min" : [
                -8.42662525177002,
                -10.123882293701172,
                -23.343399047851562
            ],
            "type" : "VEC3"
        },
        {
            "bufferView" : 1,
            "componentType" : 5126,
            "count" : 3585,
            "type" : "VEC3"
        },
        {
            "bufferView" : 2,
            "componentType" : 5126,
            "count" : 3585,
            "type" : "VEC2"
        },
        {
            "bufferView" : 3,
            "componentType" : 5123,
            "count" : 9582,
            "type" : "SCALAR"
        },
        {
            "bufferView" : 4,
            "componentType" : 5126,
            "count" : 948,
            "max" : [
                4.093194961547852,
                7.7424139976501465,
                -11.756521224975586
            ],
            "min" : [
                -4.093194961547852,
                5.027581214904785,
                -14.500731468200684
            ],
            "type" : "VEC3"
        },
        {
            "bufferView" : 5,
            "componentType" : 5126,
            "count" : 948,
            "type" : "VEC3"
        },
        {
            "bufferView" : 6,
            "componentType" : 5126,
            "count" : 948,
            "type" : "VEC2"
        },
        {
            "bufferView" : 7,
            "componentType" : 5123,
            "count" : 4320,
            "type" : "SCALAR"
        },
        {
            "bufferView" : 8,
            "componentType" : 5126,
            "count" : 878,
            "max" : [
                4.158924102783203,
                7.801116943359375,
                -11.714784622192383
            ],
            "min" : [
                -4.158924102783203,
                4.991466045379639,
                -14.524435997009277
            ],
            "type" : "VEC3"
        },
        {
            "bufferView" : 9,
            "componentType" : 5126,
            "count" : 878,
            "type" : "VEC3"
        },
        {
            "bufferView" : 10,
            "componentType" : 5126,
            "count" : 878,
            "type" : "VEC2"
        },
        {
            "bufferView" : 11,
            "componentType" : 5123,
            "count" : 4560,
            "type" : "SCALAR"
        }
    ],
    "bufferViews" : [
        {
            "buffer" : 0,
            "byteLength" : 43020,
            "byteOffset" : 0
        },
        {
            "buffer" : 0,
            "byteLength" : 43020,
            "byteOffset" : 43020
        },
        {
            "buffer" : 0,
            "byteLength" : 28680,
            "byteOffset" : 86040
        },
        {
            "buffer" : 0,
            "byteLength" : 19164,
            "byteOffset" : 114720
        },
        {
            "buffer" : 0,
            "byteLength" : 11376,
            "byteOffset" : 133884
        },
        {
            "buffer" : 0,
            "byteLength" : 11376,
            "byteOffset" : 145260
        },
        {
            "buffer" : 0,
            "byteLength" : 7584,
            "byteOffset" : 156636
        },
        {
            "buffer" : 0,
            "byteLength" : 8640,
            "byteOffset" : 164220
        },
        {
            "buffer" : 0,
            "byteLength" : 10536,
            "byteOffset" : 172860
        },
        {
            "buffer" : 0,
            "byteLength" : 10536,
            "byteOffset" : 183396
        },
        {
            "buffer" : 0,
            "byteLength" : 7024,
            "byteOffset" : 193932
        },
        {
            "buffer" : 0,
            "byteLength" : 9120,
            "byteOffset" : 200956
        }
    ],
    "buffers" : [
        {
            "byteLength" : 210076,
            "uri" : "data:application/octet-stream;base64,"
        }
    ]
}
